P3
4 5
255
0  0  0   100 0  0       0  0  0    255   0 255
0  0  0    0 255 175     0  0  0     0    0  0
0  0  0    0  0  0       0 15 175    0    0  0
255 0 255  0  0  0       0  0  0    255  255 255
1 2 3 4 5 6 7 8 9 10 11 12
