P3
4 5
255
0 0 0 6 63 0 0 0 0 180 4 175 
0 0 0 97 2 142 0 0 0 0 0 0 
2 2 4 0 0 0 17 1 21 2 2 2 
26 10 16 8 0 14 29 29 31 3 3 3 
44 0 45 25 2 26 65 65 65 135 135 134 
